<?xml version="1.0" ?>
<mxfile host="65bd71144e">
	<diagram id="RFndyrCF2-3MIdXtw8gX" name="Page-1">
		<mxGraphModel dx="422" dy="816" grid="1" gridSize="10" guides="1" tooltips="1" connect="1" arrows="1" fold="1" page="1" pageScale="1" pageWidth="850" pageHeight="1100" math="0" shadow="0">
			<root>
				<mxCell id="0"/>
				<mxCell id="1" parent="0"/>
				<mxCell id="4681658144" style="rounded=1;whiteSpace=wrap;html=1;fillColor=#FFF2CC;strokeColor=#b85450;" parent="1" vertex="1">
					<mxGeometry x="10" y="10" width="120" height="60" as="geometry"/>
				</mxCell>
				<mxCell id="4681657472" style="rounded=1;whiteSpace=wrap;html=1;fillColor=#FFF2CC;strokeColor=#b85450;" parent="1" vertex="1">
					<mxGeometry x="50" y="50" width="120" height="60" as="geometry"/>
				</mxCell>
				<mxCell id="4681658144_4681657472" value="" style="endArrow=classic;html=1;" parent="1" source="4681658144" target="4681657472" edge="1">
					<mxGeometry width="50" height="50" relative="1" as="geometry">
						<mxPoint x="400" y="440" as="sourcePoint"/>
						<mxPoint x="450" y="390" as="targetPoint"/>
					</mxGeometry>
				</mxCell>
			</root>
		</mxGraphModel>
	</diagram>
</mxfile>
